<svg width="120" height="120" viewBox="0 0 120 120" fill="none" xmlns="http://www.w3.org/2000/svg">
<rect width="120" height="120" fill="white"/>
<path d="M21.3481 77V44.6H24.4281L33.6281 66.12V44.6H37.3881V77H34.5081L25.1881 54.88V77H21.3481ZM42.4009 77L43.0009 44.6H47.4409L53.1609 70.88L58.9209 44.6H63.3209L63.9209 77H60.2809L59.9209 53.48L54.4409 77H51.8809L46.4409 53.48L46.0809 77H42.4009ZM76.5272 77.36C74.6605 77.36 73.1005 76.96 71.8472 76.16C70.6205 75.36 69.6872 74.2533 69.0472 72.84C68.4072 71.4267 68.0339 69.7867 67.9272 67.92L71.9272 66.84C72.0072 67.9867 72.1805 69.0933 72.4472 70.16C72.7405 71.2267 73.2072 72.1067 73.8472 72.8C74.4872 73.4667 75.3805 73.8 76.5272 73.8C77.7005 73.8 78.5805 73.48 79.1672 72.84C79.7805 72.1733 80.0872 71.2267 80.0872 70C80.0872 68.5333 79.7539 67.36 79.0872 66.48C78.4205 65.5733 77.5805 64.6667 76.5672 63.76L71.1272 58.96C70.0605 58.0267 69.2739 57.0133 68.7672 55.92C68.2605 54.8 68.0072 53.4267 68.0072 51.8C68.0072 49.4267 68.6872 47.5867 70.0472 46.28C71.4072 44.9733 73.2605 44.32 75.6072 44.32C76.8872 44.32 78.0072 44.4933 78.9672 44.84C79.9539 45.16 80.7672 45.6667 81.4072 46.36C82.0739 47.0533 82.5939 47.9333 82.9672 49C83.3672 50.04 83.6339 51.2667 83.7672 52.68L79.9272 53.72C79.8472 52.6533 79.6872 51.68 79.4472 50.8C79.2072 49.8933 78.7805 49.1733 78.1672 48.64C77.5805 48.08 76.7272 47.8 75.6072 47.8C74.4872 47.8 73.6072 48.1067 72.9672 48.72C72.3539 49.3067 72.0472 50.1867 72.0472 51.36C72.0472 52.3467 72.2072 53.16 72.5272 53.8C72.8739 54.44 73.4205 55.0933 74.1672 55.76L79.6472 60.56C80.8739 61.6267 81.9539 62.9067 82.8872 64.4C83.8205 65.8667 84.2872 67.6133 84.2872 69.64C84.2872 71.24 83.9539 72.6267 83.2872 73.8C82.6205 74.9467 81.7005 75.8267 80.5272 76.44C79.3805 77.0533 78.0472 77.36 76.5272 77.36ZM87.7934 77V44.6H92.3134V73.76H100.593V77H87.7934Z" fill="#3F51B5"/>
</svg>
