<svg width="210" height="210" viewBox="0 0 210 210" fill="none" xmlns="http://www.w3.org/2000/svg">
<path d="M84 168C101.049 168 116.918 162.881 130.178 154.119L174.702 203.329C178.463 207.486 183.621 209.854 189.227 209.993C189.401 209.997 189.576 210 189.75 210C195.158 210 200.224 207.904 204.063 204.063C208.027 200.099 210.133 194.83 209.993 189.227C209.854 183.621 207.486 178.463 203.329 174.702L154.119 130.178C162.881 116.917 168 101.049 168 84C168 37.6816 130.318 0 84 0C37.6816 0 0 37.6816 0 84C0 130.318 37.6816 168 84 168ZM195.278 183.599C196.975 185.134 197.94 187.239 197.997 189.526C198.054 191.811 197.196 193.961 195.579 195.579C193.96 197.194 191.802 198.051 189.526 197.997C187.239 197.94 185.134 196.975 183.599 195.278L139.723 146.783C142.213 144.57 144.571 142.213 146.784 139.722L195.278 183.599ZM84 12C123.702 12 156 44.2983 156 84C156 123.702 123.702 156 84 156C44.2983 156 12 123.702 12 84C12 44.2983 44.2983 12 84 12Z" fill="#3F51B5"/>
<path d="M42 126H126C129.313 126 132 123.313 132 120V66C132 62.6865 129.313 60 126 60H108V48C108 44.6865 105.313 42 102 42H66C62.6865 42 60 44.6865 60 48V60H42C38.6865 60 36 62.6865 36 66V120C36 123.313 38.6865 126 42 126ZM99 72V114H69V72H99ZM120 114H111V72H120V114ZM72 54H96V60H72V54ZM48 72H57V114H48V72Z" fill="#3F51B5"/>
</svg>
