<svg width="304" height="240" viewBox="0 0 304 240" fill="none" xmlns="http://www.w3.org/2000/svg">
<path d="M119.61 84.5745C119.61 79.4681 115.461 75.3191 110.354 75.3191H92.1628L77.4819 59.0425C73.333 54.2553 67.2692 51.7021 60.8862 51.7021H44.2904C36.95 51.7021 29.9287 55.2128 25.7798 61.5957L1.84363 96.7021C-0.390417 99.8936 -0.709565 104.043 1.52448 107.234C3.43937 110.106 6.31171 111.383 9.18405 111.383C12.0564 111.383 14.9287 110.106 16.8436 107.234L29.2904 89.0425V181.596C29.2904 186.064 32.4819 190.532 36.95 191.17C42.6947 192.128 47.8011 187.66 47.8011 181.915V124.468H56.7372V181.277C56.7372 185.745 59.9287 190.213 64.3968 190.851C70.1415 191.809 75.2479 187.34 75.2479 181.596V83.617L81.6309 90.6383C83.5458 92.5532 85.7798 93.8298 88.6521 93.8298H110.673C115.461 93.8298 119.61 89.6808 119.61 84.5745Z" fill="#3F51B5"/>
<path d="M51.95 46.2766C63.2307 46.2766 72.3755 37.1318 72.3755 25.8511C72.3755 14.5704 63.2307 5.42554 51.95 5.42554C40.6693 5.42554 31.5245 14.5704 31.5245 25.8511C31.5245 37.1318 40.6693 46.2766 51.95 46.2766Z" fill="#3F51B5"/>
<path d="M136.524 201.383H115.78C104.29 201.383 95.3543 210.638 95.3543 221.809V235.532C95.3543 238.085 97.2692 240 99.8224 240H152.801C155.354 240 157.269 238.085 157.269 235.532V221.809C156.95 210.319 147.695 201.383 136.524 201.383Z" fill="#3F51B5"/>
<path d="M125.993 195.319C135.687 195.319 143.546 187.46 143.546 177.766C143.546 168.072 135.687 160.213 125.993 160.213C116.298 160.213 108.439 168.072 108.439 177.766C108.439 187.46 116.298 195.319 125.993 195.319Z" fill="#3F51B5"/>
<path d="M209.61 201.383H188.865C177.376 201.383 168.439 210.638 168.439 221.809V235.532C168.439 238.085 170.354 240 172.907 240H225.886C228.439 240 230.354 238.085 230.354 235.532V221.809C230.035 210.319 220.78 201.383 209.61 201.383Z" fill="#3F51B5"/>
<path d="M199.078 195.319C208.772 195.319 216.631 187.46 216.631 177.766C216.631 168.072 208.772 160.213 199.078 160.213C189.383 160.213 181.524 168.072 181.524 177.766C181.524 187.46 189.383 195.319 199.078 195.319Z" fill="#3F51B5"/>
<path d="M282.695 201.383H261.95C250.461 201.383 241.524 210.638 241.524 221.809V235.532C241.524 238.085 243.439 240 245.993 240H298.971C301.524 240 303.439 238.085 303.439 235.532V221.809C303.12 210.319 293.865 201.383 282.695 201.383Z" fill="#3F51B5"/>
<path d="M272.163 195.319C281.857 195.319 289.716 187.46 289.716 177.766C289.716 168.072 281.857 160.213 272.163 160.213C262.468 160.213 254.61 168.072 254.61 177.766C254.61 187.46 262.468 195.319 272.163 195.319Z" fill="#3F51B5"/>
<path d="M135.248 84.5745C135.248 98.2979 124.078 109.468 110.354 109.468H100.142V135.957C100.142 140.426 103.652 143.936 108.12 143.936H291.312C295.78 143.936 299.29 140.426 299.29 135.957V7.97872C299.29 3.51064 295.78 0 291.312 0H108.12C103.652 0 100.142 3.51064 100.142 7.97872V59.6809H110.354C124.078 59.6809 135.248 70.8511 135.248 84.5745ZM171.631 30.6383H258.439C262.907 30.6383 266.418 34.1489 266.418 38.617C266.418 43.0851 262.907 46.5957 258.439 46.5957H171.631C167.163 46.5957 163.652 43.0851 163.652 38.617C163.971 34.1489 167.482 30.6383 171.631 30.6383ZM171.631 64.1489H258.439C262.907 64.1489 266.418 67.6596 266.418 72.1277C266.418 76.5957 262.907 80.1064 258.439 80.1064H171.631C167.163 80.1064 163.652 76.5957 163.652 72.1277C163.652 67.6596 167.482 64.1489 171.631 64.1489ZM171.631 97.6596H223.333C227.801 97.6596 231.312 101.17 231.312 105.638C231.312 110.106 227.801 113.617 223.333 113.617H171.631C167.163 113.617 163.652 110.106 163.652 105.638C163.652 101.17 167.482 97.6596 171.631 97.6596Z" fill="#3F51B5"/>
</svg>
